#define layout04_width 9
#define layout04_height 9
static unsigned char layout04_bits[] = {
   0xff, 0x01, 0x01, 0x01, 0x7d, 0x01, 0x45, 0x01, 0x55, 0x01, 0x55, 0x01,
   0x75, 0x01, 0x05, 0x01, 0xff, 0x01 };
