#define layout06_width 9
#define layout06_height 9
static unsigned char layout06_bits[] = {
   0xff, 0x01, 0x83, 0x01, 0x45, 0x01, 0x29, 0x01, 0x11, 0x01, 0x29, 0x01,
   0x45, 0x01, 0x83, 0x01, 0xff, 0x01 };
