#define layout05_width 9
#define layout05_height 9
static unsigned char layout05_bits[] = {
   0xff, 0x01, 0xef, 0x01, 0xc7, 0x01, 0x83, 0x01, 0x01, 0x01, 0xc7, 0x01,
   0xc7, 0x01, 0xc7, 0x01, 0xc7, 0x01 };
