#define layout01_width 9
#define layout01_height 9
static unsigned char layout01_bits[] = {
   0xef, 0x01, 0xef, 0x01, 0x0f, 0x00, 0xef, 0x01, 0xef, 0x01, 0xef, 0x01,
   0x0f, 0x00, 0xef, 0x01, 0xef, 0x01 };
