#define layout03_width 9
#define layout03_height 9
static unsigned char layout03_bits[] = {
   0xff, 0x01, 0xef, 0x01, 0xef, 0x01, 0xef, 0x01, 0x01, 0x01, 0xef, 0x01,
   0xef, 0x01, 0xef, 0x01, 0xff, 0x01 };
