#define layout02_width 9
#define layout02_height 9
static unsigned char layout02_bits[] = {
   0xff, 0x01, 0xff, 0x01, 0xff, 0x01, 0xff, 0x01, 0x00, 0x00, 0xbb, 0x01,
   0xbb, 0x01, 0xbb, 0x01, 0xbb, 0x01 };
